<?xml version="1.0" standalone="no"?>
<!DOCTYPE svg PUBLIC "-//W3C//DTD SVG 20010904//EN"
 "http://www.w3.org/TR/2001/REC-SVG-20010904/DTD/svg10.dtd">
<svg version="1.0" xmlns="http://www.w3.org/2000/svg"
 width="369.000000pt" height="369.000000pt" viewBox="0 0 369.000000 369.000000"
 preserveAspectRatio="xMidYMid meet">
<metadata>
Created by potrace 1.11, written by Peter Selinger 2001-2013
</metadata>
<g transform="translate(0.000000,369.000000) scale(0.100000,-0.100000)"
fill="#000000" stroke="none">
<path d="M924 3107 c-2 -7 -3 -368 -2 -802 l3 -790 28 -78 c41 -111 110 -221
184 -288 114 -106 283 -181 433 -195 l70 -7 0 -358 c0 -198 1 -359 3 -359 2 0
140 137 307 305 168 168 310 303 317 301 7 -3 10 0 7 7 -2 7 18 34 45 60 39
38 55 47 84 47 57 0 175 28 241 57 176 78 322 224 384 383 45 115 54 177 50
315 -4 117 -8 139 -39 220 -18 50 -32 93 -31 98 1 4 -2 7 -7 7 -5 0 -21 19
-35 43 -53 88 -170 193 -276 248 -25 13 -47 24 -50 24 -3 1 -34 11 -70 22 -36
11 -98 24 -137 28 l-73 7 0 359 0 358 -715 1 c-575 0 -717 -3 -721 -13z"/>
</g>
</svg>
