<?xml version="1.0" standalone="no"?>
<!DOCTYPE svg PUBLIC "-//W3C//DTD SVG 20010904//EN"
 "http://www.w3.org/TR/2001/REC-SVG-20010904/DTD/svg10.dtd">
<svg version="1.0" xmlns="http://www.w3.org/2000/svg"
 width="700.000000pt" height="700.000000pt" viewBox="0 0 700.000000 700.000000"
 preserveAspectRatio="xMidYMid meet">
<metadata>
Created by potrace 1.11, written by Peter Selinger 2001-2013
</metadata>
<g transform="translate(0.000000,700.000000) scale(0.100000,-0.100000)"
fill="#000000" stroke="none">
<path d="M3187 6415 c-1 -2 -81 -6 -177 -9 -96 -4 -197 -9 -225 -11 -74 -5
-186 -16 -220 -20 -16 -3 -48 -7 -71 -9 -22 -2 -56 -7 -75 -10 -19 -3 -52 -8
-74 -11 -89 -12 -242 -47 -350 -80 -509 -155 -773 -436 -821 -877 -9 -82 -9
-3098 0 -3163 26 -181 101 -343 223 -475 l62 -67 -1 -271 c0 -149 3 -286 7
-304 19 -88 80 -163 163 -204 57 -27 59 -27 268 -28 210 0 210 0 267 27 31 16
74 48 96 73 61 70 73 117 74 312 l2 167 1166 2 1165 3 1 -173 c1 -151 4 -179
23 -227 34 -88 105 -150 198 -174 53 -14 375 -15 432 -2 94 23 182 109 211
208 5 18 9 159 10 314 l0 281 40 39 c128 124 227 329 246 514 8 77 8 3060 0
3140 -18 167 -61 303 -137 425 -36 59 -48 73 -126 152 -128 129 -321 236 -557
307 -112 34 -291 75 -357 82 -19 1 -50 6 -68 9 -68 13 -251 32 -367 40 -227
15 -315 17 -653 19 -204 2 -373 2 -375 1z m2063 -1895 l0 -730 -1750 0 -1750
0 0 730 0 730 1750 0 1750 0 0 -730z m-2912 -1632 c111 -41 192 -115 243 -223
65 -137 54 -297 -28 -423 -153 -232 -475 -267 -672 -72 -172 170 -173 443 -3
616 118 119 303 161 460 102z m2608 7 c94 -27 188 -102 240 -190 167 -285 -23
-644 -348 -660 -249 -12 -448 171 -463 425 -3 51 17 137 44 195 92 196 312
293 527 230z"/>
</g>
</svg>
